<svg xmlns="http://www.w3.org/2000/svg" width="24" height="24" fill="none" viewBox="0 0 24 24"><path fill="#CBD5E1" fill-rule="evenodd" d="M13 18.225c0 .363.377.615.718.489 1.241-.458 4.023-1.34 7.82-1.676a.5.5 0 00.462-.496V5.5a.475.475 0 00-.497-.483c-1.255.061-4.7.364-8.204 1.854a.492.492 0 00-.299.453v10.902z" clip-rule="evenodd"></path><path fill="#CBD5E1" fill-rule="evenodd" d="M11 18.225a.534.534 0 01-.718.489c-1.241-.458-4.023-1.34-7.82-1.676A.5.5 0 012 16.542V5.5c0-.276.221-.497.497-.483 1.255.061 4.7.364 8.204 1.854a.492.492 0 01.299.453v10.902z" clip-rule="evenodd" opacity="0.48"></path></svg>