<svg xmlns="http://www.w3.org/2000/svg" width="24" height="24" fill="none" viewBox="0 0 24 24"><path fill="#cbd5e1" fill-rule="evenodd" d="M6.811 1.15c-2.014.129-3.514 1.65-3.633 3.665C3.08 6.45 3 8.778 3 12c0 5.026.197 8.473.344 10.341a.955.955 0 001.518.697l6.561-4.63a1 1 0 011.154 0l6.56 4.63a.955.955 0 001.519-.697C20.803 20.473 21 17.026 21 12c0-3.222-.081-5.551-.178-7.185-.12-2.015-1.619-3.536-3.633-3.666A81.403 81.403 0 0011.999 1c-2.172 0-3.886.066-5.188.15z" clip-rule="evenodd" opacity="0.25"></path><path fill="#cbd5e1" fill-rule="evenodd" d="M6.811 1.15c-2.014.129-3.514 1.65-3.633 3.665a70.7 70.7 0 00-.01.185h17.665a54.183 54.183 0 00-.011-.185c-.12-2.015-1.619-3.536-3.633-3.666A81.402 81.402 0 0012 1a81.41 81.41 0 00-5.189.15z" clip-rule="evenodd"></path></svg>