<svg xmlns="http://www.w3.org/2000/svg" width="208" height="53" fill="none" viewBox="0 0 208 53" data-testid="ccbp-academy-logo"><path fill="url(#___SVG_ID__0__0___)" d="M61.716 51.176h5.643l1.383-3.458h7.468l1.411 3.458h5.754l-8.243-19.501h-5.173l-8.243 19.501zm8.603-7.635l2.185-5.504 2.157 5.505H70.32z"></path><path fill="url(#___SVG_ID__0__1___)" d="M93.333 51.563c4.288 0 6.75-1.853 8.575-4.37l-4.038-2.877c-1.162 1.41-2.352 2.351-4.371 2.351-2.71 0-4.62-2.268-4.62-5.172v-.056c0-2.821 1.91-5.117 4.62-5.117 1.853 0 3.126.885 4.232 2.268l4.039-3.126c-1.715-2.379-4.26-4.038-8.216-4.038-5.864 0-10.207 4.426-10.207 10.069v.055c0 5.781 4.454 10.013 9.986 10.013z"></path><path fill="url(#___SVG_ID__0__2___)" d="M102.506 51.176h5.643l1.383-3.458h7.469l1.41 3.458h5.754l-8.243-19.501h-5.173l-8.243 19.501zm8.603-7.635l2.185-5.504 2.158 5.505h-4.343z"></path><path fill="url(#___SVG_ID__0__3___)" d="M126.044 51.176h7.358c6.971 0 11.037-4.15 11.037-9.737v-.055c0-5.588-4.011-9.571-10.927-9.571h-7.468v19.363zm5.366-4.758v-9.847h2.185c3.209 0 5.339 1.798 5.339 4.896v.055c0 3.126-2.13 4.896-5.339 4.896h-2.185z"></path><path fill="url(#___SVG_ID__0__4___)" d="M147.195 51.176h15.712v-4.564h-10.401v-3.07h9.295v-4.233h-9.295v-2.932h10.263v-4.564h-15.574v19.363z"></path><path fill="url(#___SVG_ID__0__5___)" d="M165.645 51.176h5.256V40.111l4.924 7.524h.11l4.952-7.579v11.12h5.339V31.813h-5.671l-4.62 7.496-4.619-7.496h-5.671v19.363z"></path><path fill="url(#___SVG_ID__0__6___)" d="M195.248 51.176h5.394v-7.33L208 31.813h-6.003l-4.011 7.054-3.983-7.054h-6.113l7.358 12.116v7.247z"></path><path fill="url(#___SVG_ID__0__7___)" d="M77.616 21.85l-1.99-2.01a7.882 7.882 0 01-1.685 1.219c-.555.298-1.24.447-2.051.447a4.08 4.08 0 01-1.686-.346 4.205 4.205 0 01-1.3-.974 4.627 4.627 0 01-.832-1.422 4.874 4.874 0 01-.304-1.726v-.04c0-.61.101-1.178.304-1.706a4.42 4.42 0 01.853-1.421 3.946 3.946 0 011.3-.955 4.03 4.03 0 011.665-.345c.717 0 1.36.142 1.929.427.582.284 1.15.676 1.705 1.177l1.99-2.294a8.37 8.37 0 00-1.056-.894 6.47 6.47 0 00-1.238-.69 7.545 7.545 0 00-1.503-.447 9.243 9.243 0 00-1.807-.162c-1.096 0-2.098.196-3.005.589a6.861 6.861 0 00-2.335 1.584 7.188 7.188 0 00-1.523 2.335 7.336 7.336 0 00-.548 2.842v.04c0 1.016.182 1.97.548 2.864a7.188 7.188 0 001.523 2.335 7.225 7.225 0 002.315 1.543 7.358 7.358 0 002.903.569c.69 0 1.313-.061 1.868-.183a6.476 6.476 0 001.523-.487c.474-.23.907-.501 1.3-.813.392-.31.771-.663 1.137-1.055z"></path><path fill="url(#___SVG_ID__0__8___)" d="M92.607 21.85l-1.99-2.01a7.882 7.882 0 01-1.686 1.219c-.555.298-1.238.447-2.05.447a4.08 4.08 0 01-1.686-.346 4.206 4.206 0 01-1.3-.974 4.627 4.627 0 01-.832-1.422 4.874 4.874 0 01-.304-1.726v-.04c0-.61.101-1.178.304-1.706a4.42 4.42 0 01.853-1.421 3.946 3.946 0 011.3-.955 4.03 4.03 0 011.665-.345c.717 0 1.36.142 1.929.427.582.284 1.15.676 1.705 1.177l1.99-2.294a8.363 8.363 0 00-1.056-.894 6.47 6.47 0 00-1.238-.69 7.545 7.545 0 00-1.503-.447 9.241 9.241 0 00-1.807-.162c-1.096 0-2.098.196-3.005.589a6.862 6.862 0 00-2.335 1.584 7.188 7.188 0 00-1.523 2.335 7.336 7.336 0 00-.548 2.842v.04c0 1.016.182 1.97.548 2.864a7.188 7.188 0 001.523 2.335 7.227 7.227 0 002.314 1.543 7.358 7.358 0 002.904.569c.69 0 1.313-.061 1.868-.183a6.475 6.475 0 001.523-.487c.474-.23.907-.501 1.3-.813.392-.31.771-.663 1.137-1.055z"></path><path fill="url(#___SVG_ID__0__9___)" d="M107.192 20.247v-.041c0-.948-.237-1.685-.711-2.213-.474-.542-1.124-.968-1.949-1.28.257-.135.494-.297.71-.487.23-.19.427-.406.589-.65.176-.257.311-.541.406-.853.108-.31.163-.67.163-1.076v-.04c0-1.124-.42-2.017-1.259-2.68-.826-.664-1.97-.995-3.432-.995H95.11v14.213h6.762c.798 0 1.522-.081 2.172-.244.664-.162 1.225-.406 1.686-.73a3.207 3.207 0 001.076-1.219c.257-.487.386-1.056.386-1.705zm-3.899-6.072c0 .528-.203.914-.609 1.158-.406.23-.955.345-1.645.345h-2.883v-3.005h3.086c.663 0 1.171.128 1.523.386.352.243.528.602.528 1.076v.04zm.792 5.686c0 .528-.196.92-.589 1.177-.393.244-.934.366-1.624.366h-3.716v-3.127h3.614c.812 0 1.401.142 1.767.426.365.271.548.643.548 1.117v.04z"></path><path fill="url(#___SVG_ID__0__10___)" d="M121.013 14.886v-.04c0-.732-.129-1.395-.386-1.99a4.205 4.205 0 00-1.076-1.564c-.46-.433-1.029-.765-1.706-.995-.663-.244-1.421-.365-2.274-.365h-5.807v14.213h3.127v-4.264h2.375c.799 0 1.544-.102 2.234-.305a5.345 5.345 0 001.828-.954c.527-.42.94-.94 1.238-1.563.298-.623.447-1.347.447-2.173zm-3.168.06c0 .61-.216 1.124-.65 1.544-.433.406-1.042.61-1.827.61h-2.477v-4.346h2.416c.785 0 1.401.183 1.848.548.46.366.69.9.69 1.604v.04z"></path><path fill="url(#___SVG_ID__0__11___)" d="M136.136 9.83l-7.798 9.036.508 2.213h6.944v3.066h2.985V21.08h1.909v-2.538h-1.909V9.83h-2.639zm-.346 8.71h-3.776l3.776-4.426v4.427z"></path><path fill="url(#___SVG_ID__0__12___)" d="M146.257 24.145v-3.249h-3.29v3.25h3.29z"></path><path fill="url(#___SVG_ID__0__13___)" d="M161.245 17.018c0-1.029-.149-1.99-.447-2.883a7.093 7.093 0 00-1.279-2.335 5.573 5.573 0 00-1.99-1.544c-.772-.379-1.631-.568-2.579-.568-.947 0-1.814.19-2.599.568-.772.38-1.435.9-1.99 1.564-.555.663-.988 1.448-1.299 2.355a9.057 9.057 0 00-.447 2.884c0 1.042.149 2.01.447 2.903.297.88.717 1.652 1.259 2.315a6.045 6.045 0 001.989 1.564c.786.365 1.652.548 2.599.548.948 0 1.808-.19 2.579-.569.785-.379 1.455-.9 2.01-1.563a7.095 7.095 0 001.28-2.335 8.775 8.775 0 00.467-2.904zm-3.209.04c0 .65-.074 1.253-.223 1.808a4.498 4.498 0 01-.609 1.421 3.118 3.118 0 01-.975.954 2.53 2.53 0 01-1.279.325c-.474 0-.907-.115-1.299-.345a3.118 3.118 0 01-.975-.954 4.838 4.838 0 01-.63-1.442 6.996 6.996 0 01-.223-1.807c0-.65.068-1.252.203-1.807a4.567 4.567 0 01.63-1.421c.27-.407.595-.718.974-.934.379-.23.806-.346 1.279-.346.474 0 .901.115 1.28.345.392.23.724.549.995.955.27.406.48.886.629 1.441.149.556.223 1.158.223 1.808z"></path><path fill="url(#___SVG_ID__0__14___)" fill-rule="evenodd" d="M2.244 22.763l1.203 3.292c.095.254.38.38.633.285l2.818-1.013a.492.492 0 00.284-.633L5.98 21.401a.498.498 0 00-.348-.316l-1.488-.348-3.134-8.643 15.64 1.14c.158 0 .284-.032.38-.127l11.397-11.08a.603.603 0 00.158-.317c.032-.285-.19-.507-.475-.539L12.28 0c-.158 0-.284.032-.38.127L2.308 9.434l11.176-4.052a.492.492 0 01.348.918L.66 11.112c-.507.19-.792.76-.602 1.267l3.166 8.674-.918 1.235c-.095.158-.127.317-.063.475zm4.052-9.308l10.258.76c.221.032.443 0 .633-.063.19-.095.38-.19.538-.349l7.408-7.186 1.9 5.255a.492.492 0 01.02.221.545.545 0 01-.147.318l-7.503 7.25c-.095.094-.222.126-.38.126l-10.384-.76a.447.447 0 01-.443-.316l-1.9-5.256zm20.61-6.079h18.679c4.685 0 8.484 3.8 8.484 8.453v28.272c0 4.685-3.799 8.485-8.484 8.485h-28.24A8.485 8.485 0 018.86 44.1V20.483l10.068.729h.158c.507 0 .982-.19 1.33-.539l7.471-7.25c.539-.506.729-1.33.475-2.026l-1.456-4.02zM15.54 34.35l1.045 1.425L42.672 16.81l-.443 2.85 1.741.284.95-5.825-5.825-.918-.285 1.741 2.85.443L15.54 34.35zm29.602 4.337v-6.236h.031v-6.68h-9.846v5.793h-8.832v7.123h-8.01v7.124h26.657v-7.124z" clip-rule="evenodd"></path><defs><linearGradient id="___SVG_ID__0__0___" x1="61.716" x2="209.186" y1="41.009" y2="41.009" gradientUnits="userSpaceOnUse"><stop stop-color="#00C6FF"></stop><stop offset="1" stop-color="#0072FF"></stop></linearGradient><linearGradient id="___SVG_ID__0__1___" x1="61.716" x2="209.186" y1="41.009" y2="41.009" gradientUnits="userSpaceOnUse"><stop stop-color="#00C6FF"></stop><stop offset="1" stop-color="#0072FF"></stop></linearGradient><linearGradient id="___SVG_ID__0__2___" x1="61.716" x2="209.186" y1="41.009" y2="41.009" gradientUnits="userSpaceOnUse"><stop stop-color="#00C6FF"></stop><stop offset="1" stop-color="#0072FF"></stop></linearGradient><linearGradient id="___SVG_ID__0__3___" x1="61.716" x2="209.186" y1="41.009" y2="41.009" gradientUnits="userSpaceOnUse"><stop stop-color="#00C6FF"></stop><stop offset="1" stop-color="#0072FF"></stop></linearGradient><linearGradient id="___SVG_ID__0__4___" x1="61.716" x2="209.186" y1="41.009" y2="41.009" gradientUnits="userSpaceOnUse"><stop stop-color="#00C6FF"></stop><stop offset="1" stop-color="#0072FF"></stop></linearGradient><linearGradient id="___SVG_ID__0__5___" x1="61.716" x2="209.186" y1="41.009" y2="41.009" gradientUnits="userSpaceOnUse"><stop stop-color="#00C6FF"></stop><stop offset="1" stop-color="#0072FF"></stop></linearGradient><linearGradient id="___SVG_ID__0__6___" x1="61.716" x2="209.186" y1="41.009" y2="41.009" gradientUnits="userSpaceOnUse"><stop stop-color="#00C6FF"></stop><stop offset="1" stop-color="#0072FF"></stop></linearGradient><linearGradient id="___SVG_ID__0__7___" x1="64.499" x2="162.029" y1="16.684" y2="16.684" gradientUnits="userSpaceOnUse"><stop stop-color="#00C6FF"></stop><stop offset="1" stop-color="#0072FF"></stop></linearGradient><linearGradient id="___SVG_ID__0__8___" x1="64.499" x2="162.029" y1="16.684" y2="16.684" gradientUnits="userSpaceOnUse"><stop stop-color="#00C6FF"></stop><stop offset="1" stop-color="#0072FF"></stop></linearGradient><linearGradient id="___SVG_ID__0__9___" x1="64.499" x2="162.029" y1="16.684" y2="16.684" gradientUnits="userSpaceOnUse"><stop stop-color="#00C6FF"></stop><stop offset="1" stop-color="#0072FF"></stop></linearGradient><linearGradient id="___SVG_ID__0__10___" x1="64.499" x2="162.029" y1="16.684" y2="16.684" gradientUnits="userSpaceOnUse"><stop stop-color="#00C6FF"></stop><stop offset="1" stop-color="#0072FF"></stop></linearGradient><linearGradient id="___SVG_ID__0__11___" x1="64.499" x2="162.029" y1="16.684" y2="16.684" gradientUnits="userSpaceOnUse"><stop stop-color="#00C6FF"></stop><stop offset="1" stop-color="#0072FF"></stop></linearGradient><linearGradient id="___SVG_ID__0__12___" x1="64.499" x2="162.029" y1="16.684" y2="16.684" gradientUnits="userSpaceOnUse"><stop stop-color="#00C6FF"></stop><stop offset="1" stop-color="#0072FF"></stop></linearGradient><linearGradient id="___SVG_ID__0__13___" x1="64.499" x2="162.029" y1="16.684" y2="16.684" gradientUnits="userSpaceOnUse"><stop stop-color="#00C6FF"></stop><stop offset="1" stop-color="#0072FF"></stop></linearGradient><linearGradient id="___SVG_ID__0__14___" x1="0" x2="54.508" y1="25.024" y2="25.024" gradientUnits="userSpaceOnUse"><stop stop-color="#00C6FF"></stop><stop offset="1" stop-color="#0072FF"></stop></linearGradient></defs></svg>