<svg xmlns="http://www.w3.org/2000/svg" width="24" height="24" fill="none" viewBox="0 0 24 24"><path fill="#cbd5e1" d="M17.272 8.685a.998.998 0 01.043-1.413.998.998 0 011.413.043l4 4.25a.998.998 0 010 1.37l-4 4.25a.999.999 0 11-1.456-1.37l3.355-3.565-3.355-3.565zm-10.544 0L3.373 12.25l3.355 3.565a.998.998 0 01-.043 1.413.998.998 0 01-1.413-.043l-4-4.25a.998.998 0 010-1.37l4-4.25a.998.998 0 011.413-.043.998.998 0 01.043 1.413z"></path><path fill="#cbd5e1" d="M14.778 5.497a1 1 0 00-1.932-.517L9.222 18.503a1 1 0 001.932.517l3.624-13.523z" opacity="0.48"></path></svg>