<svg xmlns="http://www.w3.org/2000/svg" width="24" height="24" fill="none" viewBox="0 0 24 24"><path fill="#8B5CF6" d="M20 18.8V6.64l-6.349-3.825c-.6-.362-.9-.542-1.22-.613a1.985 1.985 0 00-.861 0c-.321.07-.621.251-1.221.613L4 6.64V18.8c0 1.12 0 1.68.218 2.108.192.376.498.682.874.874C5.52 22 6.08 22 7.2 22h9.6c1.12 0 1.68 0 2.108-.218.376-.192.682-.498.874-.874C20 20.48 20 19.92 20 18.8z" opacity="0.25"></path><path fill="#8B5CF6" fill-rule="evenodd" d="M1.143 9.514a.998.998 0 001.371.343L12 4.167l9.485 5.69a1 1 0 101.03-1.715l-9.486-5.69a2 2 0 00-2.058 0l-9.486 5.69a1 1 0 00-.342 1.372z" clip-rule="evenodd"></path><path fill="#8B5CF6" d="M9 16a3 3 0 116 0v6H9v-6z"></path></svg>