<svg 
    xmlns="http://www.w3.org/2000/svg" 
    width="24" 
    height="24" 
    fill="none" 
    viewBox="0 0 24 24"
>
    <path 
        opacity="0.25" 
        d="M2 10a3 3 0 0 1 3-3h14a3 3 0 0 1 3 3v9a3 3 0 0 1-3 3H5a3 3 0 0 1-3-3v-9z" 
        fill="#CBD5E1">
    </path>
    <path 
        fill-rule="evenodd" 
        clip-rule="evenodd" 
        d="M9 4a1 1 0 0 0-1 1v3a1 1 0 0 1-2 0V5a3 3 0 0 1 3-3h6a3 3 0 0 1 3 3v3a1 1 0 1 1-2 0V5a1 1 0 0 0-1-1H9z" 
        fill="#CBD5E1">
    </path>
</svg>
