<svg width="24" height="24" viewBox="0 0 24 24" fill="none" xmlns="http://www.w3.org/2000/svg"><path d="M14.051 1H9.94531V2.54698H14.051V1Z" fill="#CBD5E1"></path><path d="M10.8797 1H10.6543V2.54698H10.8797V1Z" fill="#334155"></path><path d="M12.1101 1H11.8848V2.54698H12.1101V1Z" fill="#334155"></path><path d="M13.3485 1H13.123V2.54698H13.3485V1Z" fill="#334155"></path><path d="M13.0474 2.54688H10.9512V3.40524H13.0474V2.54688Z" fill="#334155"></path><path d="M5.27333 4.88477L3.79102 6.35913L4.40125 6.96608L5.88356 5.49172L5.27333 4.88477Z" fill="#CBD5E1"></path><path d="M21.8718 14.6318C22.748 9.20894 19.0386 4.1064 13.5865 3.2349C8.13446 2.36339 3.00438 6.05295 2.12816 11.4758C1.25196 16.8985 4.96143 22.0011 10.4135 22.8726C15.8655 23.7441 20.9956 20.0545 21.8718 14.6318Z" fill="#334155"></path><path d="M20.4916 15.0224C21.5856 10.3575 18.6704 5.69377 13.9803 4.60564C9.29023 3.5175 4.60127 6.41706 3.50726 11.082C2.41326 15.7469 5.32846 20.4106 10.0185 21.4988C14.7086 22.5869 19.3976 19.6874 20.4916 15.0224Z" fill="#CBD5E1"></path><path d="M15.2304 20.3742C19.2956 18.6009 21.1459 13.8857 19.3631 9.8422C17.5803 5.79883 12.8395 3.95852 8.7743 5.73175C4.70909 7.505 2.85884 12.2203 4.64165 16.2637C6.42446 20.3072 11.1652 22.1474 15.2304 20.3742Z" fill="#334155"></path><path d="M12.6453 13.0526H11.3477L11.9273 7.48922C11.9369 7.40594 12.0561 7.40594 12.0657 7.48922L12.6453 13.0526Z" fill="#CBD5E1"></path><path d="M12.6453 13.052H11.3477L14.1589 16.9595C14.2071 17.0268 14.3101 16.9691 14.278 16.8923L12.6421 13.0488L12.6453 13.052Z" fill="#CBD5E1"></path><path d="M11.9999 5.76858C11.9002 5.76858 11.8164 5.68531 11.8164 5.58602V4.71484H12.1835V5.58602C12.1835 5.68531 12.0998 5.76858 11.9999 5.76858Z" fill="#CBD5E1"></path><path d="M17.1801 7.90172C17.1092 7.83126 17.1092 7.71595 17.1801 7.64228L17.7984 7.02734L18.0592 7.28677L17.4409 7.90172C17.3701 7.97218 17.2542 7.97218 17.1801 7.90172Z" fill="#CBD5E1"></path><path d="M19.3301 13.0527C19.3301 12.9502 19.4138 12.8701 19.5136 12.8701H20.3895V13.2353H19.5136C19.4138 13.2353 19.3301 13.152 19.3301 13.0527Z" fill="#CBD5E1"></path><path d="M17.1801 18.2032C17.2509 18.1328 17.3669 18.1328 17.4409 18.2032L18.0592 18.8182L17.7984 19.0776L17.1801 18.4627C17.1092 18.3922 17.1092 18.2769 17.1801 18.2032Z" fill="#CBD5E1"></path><path d="M11.9999 20.335C12.0998 20.335 12.1835 20.4182 12.1835 20.5175V21.3887H11.8164V20.5175C11.8164 20.4182 11.9002 20.335 11.9999 20.335Z" fill="#CBD5E1"></path><path d="M6.82246 18.2032C6.8933 18.2737 6.8933 18.389 6.82246 18.4627L6.20419 19.0776L5.94336 18.8182L6.56163 18.2032C6.63247 18.1328 6.74839 18.1328 6.82246 18.2032Z" fill="#CBD5E1"></path><path d="M4.67662 13.0527C4.67662 13.152 4.59289 13.2353 4.49306 13.2353H3.61719V12.8701H4.49306C4.59289 12.8701 4.67662 12.9534 4.67662 13.0527Z" fill="#CBD5E1"></path><path d="M6.82246 7.90172C6.75161 7.97218 6.63569 7.97218 6.56163 7.90172L5.94336 7.28677L6.20419 7.02734L6.82246 7.64228C6.8933 7.71275 6.8933 7.82805 6.82246 7.90172Z" fill="#CBD5E1"></path></svg>