<svg xmlns="http://www.w3.org/2000/svg" width="24" height="24" fill="none" viewBox="0 0 24 24"><path fill="#CBD5E1" fill-rule="evenodd" d="M16 15.632V12c0-1.657-1.343-3-3-3H6.162V5.526C6.162 4.131 7.292 3 8.688 3h11.79c1.395 0 2.526 1.131 2.526 2.526v7.58l.017 4.68c0 .277-.223.502-.499.503-.133 0-.26-.053-.355-.147l-2.51-2.51H16z" clip-rule="evenodd"></path><path fill="#CBD5E1" fill-rule="evenodd" d="M1.985 18v-5c0-1.105.895-2 2-2h8c1.105 0 2 .895 2 2v5c0 1.105-.895 2-2 2H4.101l-1.244 1.19c-.2.191-.516.184-.707-.015-.09-.093-.139-.217-.139-.346v-2.505c-.017-.105-.026-.214-.026-.324zM6.5 14c-.276 0-.5.224-.5.5s.224.5.5.5h5c.276 0 .5-.224.5-.5s-.224-.5-.5-.5h-5zm3 2c-.276 0-.5.224-.5.5s.224.5.5.5h2c.276 0 .5-.224.5-.5s-.224-.5-.5-.5h-2z" clip-rule="evenodd" opacity=".3"></path></svg>