<svg xmlns="http://www.w3.org/2000/svg" width="24" height="24" fill="none" viewBox="0 0 24 24"><path fill="#CBD5E1" d="M3 4a3 3 0 013-3h9.757c.796 0 1.56.316 2.122.879L20.12 4.12a3 3 0 01.879 2.122V20a3 3 0 01-3 3H6a3 3 0 01-3-3V4z" opacity="0.25"></path><path fill="#CBD5E1" d="M15 1.892c0-.493.4-.892.892-.892.71 0 1.39.282 1.892.784l2.432 2.432c.502.502.784 1.183.784 1.892 0 .493-.4.892-.892.892H16a1 1 0 01-1-1V1.892z" opacity="0.5"></path><g fill="#CBD5E1" clip-path="url(#clip0)"><path d="M7.667 14.667V8.833h6.14c.535 0 .823.627.475 1.032l-1.615 1.885 1.615 1.885a.625.625 0 01-.474 1.032H7.667z"></path><path d="M7.667 8.417a.417.417 0 11.833 0v9.166a.417.417 0 01-.833 0V8.417z"></path></g><defs><clipPath id="clip0"><path fill="#fff" d="M0 0h10v10H0z" transform="translate(6 8)"></path></clipPath></defs></svg>