<svg width="24" height="25" viewBox="0 0 24 25" fill="none" xmlns="http://www.w3.org/2000/svg"><path d="M9.53872 12.2542C12.0875 11.0059 14.1179 8.90348 15.6947 6.56018C15.8459 6.31928 15.9971 6.07838 16.1915 5.85938C13.6427 8.75017 11.2667 10.2175 9.71152 10.8088C8.54512 11.2468 5.80192 12.0352 4.89472 11.0059C4.18192 10.1737 4.80832 8.35598 4.98112 7.83038C5.19712 7.19528 5.49952 6.69158 5.75872 6.29738C5.17552 6.97628 4.48432 7.54568 4.03072 8.31218C3.53392 9.14438 3.05872 10.0861 3.23152 11.0935C3.36112 12.0571 4.18192 12.7798 5.06752 12.9769C6.57952 13.3273 8.13472 12.9331 9.49552 12.2761L9.53872 12.2542Z" fill="#CBD5E1"></path><path d="M18.4228 13.6951C15.8956 15.6661 13.714 16.8487 13.0012 17.1772C12.4396 17.44 10.4308 18.2065 7.73082 18.8416C6.26203 19.192 4.98762 19.2796 4.01562 19.3891C4.01562 19.3891 4.01563 19.3891 4.03723 19.3891C6.34843 19.8271 8.91883 19.4986 11.2516 18.8854C15.334 17.5714 19.0708 14.9872 21.3172 11.1328C20.626 11.8336 19.654 12.7315 18.4444 13.6732L18.4228 13.6951Z" fill="#CBD5E1"></path><path d="M10.9453 23.7982C14.2933 23.6011 17.4037 22.1557 19.9093 19.9219C18.6565 20.7103 17.1229 21.5425 15.3301 22.309C13.7317 22.9879 12.2629 23.4478 10.9453 23.7982Z" fill="#CBD5E1"></path><path d="M9.17597 16.6077C12.4376 15.7317 15.3968 13.8702 17.7512 11.4174C18.3776 10.7385 18.8312 9.92816 19.22 9.09596C19.544 8.46086 19.4576 7.69436 19.0904 7.10306C18.5288 6.11756 17.2976 5.63576 16.2176 5.85476C16.0232 6.07376 15.872 6.31466 15.7208 6.55556C14.144 8.89886 12.092 11.0013 9.56477 12.2496C8.20397 12.9066 6.62717 13.3008 5.13677 12.9504C4.22957 12.7533 3.43037 12.0306 3.30077 11.067C3.14957 10.0596 3.60318 9.11786 4.09997 8.28566C4.57517 7.51916 5.26637 6.94976 5.82797 6.27086C5.95757 6.11756 6.08717 5.96426 6.19517 5.78906C5.02877 6.64316 3.94878 7.65056 3.17118 8.89886C2.22078 10.41 1.83198 12.2715 2.11278 14.0235C2.32878 15.3375 3.34397 16.4544 4.61837 16.8267C6.13037 17.2428 7.72877 17.0019 9.19757 16.5858L9.17597 16.6077Z" fill="#475569"></path><path d="M21.2938 11.1547C19.069 15.0091 15.3106 17.5933 11.2282 18.9073C8.89539 19.5205 6.32499 19.849 4.01379 19.411C4.01379 19.411 4.01379 19.411 3.99219 19.411C4.68339 19.9804 5.39619 20.6593 6.21699 21.0316C7.94499 21.9076 9.95379 21.9076 11.833 21.6886C14.533 21.3382 17.0602 20.0023 18.9394 18.0313C20.257 16.7392 21.2938 15.0529 21.4666 13.1695C21.4882 12.4906 21.6178 11.7679 21.2938 11.1328V11.1547Z" fill="#475569"></path><path d="M10.9435 23.7904C12.5851 24.1627 14.4427 24.1846 15.9979 23.5714C17.6827 22.9144 19.1515 21.6004 19.9291 19.9141C19.9291 19.9141 19.9075 19.936 19.8859 19.9579C17.4019 22.1698 14.2915 23.6371 10.9219 23.8342L10.9435 23.7904Z" fill="#475569"></path><path d="M9.34409 4.33374L9.80734 7.01975L9.9521 6.94636L10.0245 3.89341C10.0245 3.89341 11.3129 3.14485 11.6024 2.91001C11.7038 2.82195 12.1236 2.44033 11.9643 2.17613C11.7761 1.94129 11.2405 2.14678 11.1102 2.19081C10.7773 2.35226 9.53228 3.15953 9.53228 3.15953L6.55011 2L6.41982 2.08807L8.83741 3.57051C8.83741 3.57051 8.24387 4.01083 7.93986 4.24568C7.63585 4.48052 6.96993 5.06762 6.96993 5.06762L6 4.78875V4.84746L6.75278 5.37585L6.95545 6.13909H7.01336C7.01336 6.15377 7.12917 5.33182 7.12917 5.33182C7.12917 5.33182 7.95434 4.99424 8.31625 4.83278C8.66369 4.67133 9.32961 4.33374 9.32961 4.33374H9.34409Z" fill="#CBD5E1"></path></svg>