<svg viewBox="0 0 24 24" fill="none" xmlns="http://www.w3.org/2000/svg" height="24" width="24"><g clip-path="url(#___SVG_ID__8__0___)"><path d="M14.8072 0C13.0592 0 11.585 1.47426 11.585 3.22226C11.585 4.97026 13.0592 6.44453 14.8072 6.44453C16.5552 6.44453 17.9767 4.97026 17.9767 3.22226C17.9767 1.47426 16.5552 0 14.8072 0Z" fill="#CBD5E1"></path><path opacity="0.4" d="M18.3246 6.44434C17.4538 7.40991 16.2066 8.02905 14.807 8.02905C13.4074 8.02905 12.1073 7.40991 11.2365 6.44434C10.4763 7.28735 10 8.39174 10 9.61377V10.4061C10 10.8441 10.3544 11.1985 10.7924 11.1985H18.7688C19.2067 11.1985 19.5611 10.8441 19.5611 10.4061V9.61377C19.5611 8.39174 19.0849 7.28735 18.3246 6.44434Z" fill="#CBD5E1"></path><path opacity="0.25" d="M7.31187 21.7531L3.98258 15.0782C3.66111 14.4337 2.87871 14.1708 2.23338 14.4906L1.36322 14.9216C1.03922 15.0823 0.907387 15.4761 1.0691 15.7995L4.98893 23.6392C5.15012 23.9625 5.54224 24.0912 5.86362 23.9327L6.72258 23.5071C7.37044 23.1862 7.63451 22.4001 7.31187 21.7531Z" fill="#CBD5E1"></path><path d="M22.7641 12.4887C22.2284 12.0968 21.4836 12.1752 21.0394 12.6586L17.468 17.0488C17.2197 17.3101 16.7494 17.4669 16.5011 17.4669H13.4566C13.0907 17.4669 12.8033 17.1795 12.8033 16.8136C12.8033 16.4477 13.0907 16.1603 13.4566 16.1603C14.3316 16.1603 15.3004 16.1603 16.0699 16.1603C16.7885 16.1603 17.3765 15.5723 17.3765 14.8537C17.3765 14.1351 16.7885 13.5471 16.0699 13.5471C13.0017 13.5471 15.9283 13.5471 12.6465 13.5471C12.3209 13.5471 12.1586 13.3406 11.9018 13.1159C10.8909 12.2062 9.37787 11.768 7.84609 12.1231C6.99557 12.3202 6.42201 12.6638 5.8403 13.1245L5.82092 13.1088L4.87598 13.9404L8.58955 21.3868H9.6892H16.0699C17.2981 21.3868 18.4741 20.7988 19.2058 19.8188L23.0385 14.3311C23.4697 13.7561 23.3521 12.92 22.7641 12.4887Z" fill="#CBD5E1"></path></g><defs><clipPath id="___SVG_ID__8__0___"><rect width="24" height="24" fill="white"></rect></clipPath></defs></svg>