<svg xmlns="http://www.w3.org/2000/svg" width="24" height="24" fill="none" viewBox="0 0 24 24"><path fill="#CBD5E1" d="M4 5h16v14H4z"></path><path fill="#334155" fill-rule="evenodd" d="M2.4 6a2.4 2.4 0 012.4-2.4h14.4A2.4 2.4 0 0121.6 6v12a2.4 2.4 0 01-2.4 2.4H4.8A2.4 2.4 0 012.4 18V6zm3.951 1.551a1.202 1.202 0 011.698 0l3.6 3.6c.468.47.468 1.229 0 1.697l-3.6 3.6a1.201 1.201 0 01-1.698-1.697L9.103 12 6.351 9.249a1.202 1.202 0 010-1.698zM13.2 14.4a1.2 1.2 0 100 2.4h3.6a1.2 1.2 0 100-2.4h-3.6z" clip-rule="evenodd"></path></svg>