<svg xmlns="http://www.w3.org/2000/svg" width="21" height="24" fill="none" viewBox="0 0 21 24"><path fill="#334155" d="M0.755 19.386H20.688V23.404H0.755z"></path><path fill="#334155" d="M.755.854h19.49v18.03l-19.49.678V.854z"></path><path fill="#596678" d="M19.74 0H2.52C1.13.001.002 1.152 0 2.571v18.857a2.25 2.25 0 00.01.252c.161 1.335 1.28 2.334 2.598 2.32H19.74c.696 0 1.26-.576 1.26-1.286V1.286C21 .576 20.436 0 19.74 0zM8.95 23.143h-.197-.222-2.854-3.069c-.89.017-1.65-.653-1.764-1.555a1.362 1.362 0 01-.004-.16c.004-.945.754-1.71 1.68-1.714h15.54a3.705 3.705 0 000 3.429H8.95zm10.79 0h-.42c-.396 0-.84-.734-.84-1.715 0-.98.444-1.714.84-1.714h.42a.847.847 0 00.42-.115v3.115a.424.424 0 01-.42.429zm0-4.286H3.36v-.428a.424.424 0 00-.42-.43.424.424 0 00-.42.43v.428c-.62 0-1.22.235-1.68.66V2.57c0-.946.752-1.714 1.68-1.714v.429c0 .236.188.428.42.428.232 0 .42-.192.42-.428V.857h16.38c.232 0 .42.192.42.429V18a1.165 1.165 0 01-.42.857z"></path><path fill="#CBD5E1" d="M2.94 2.571A.424.424 0 002.52 3v.857c0 .237.189.429.42.429.232 0 .42-.192.42-.429V3a.424.424 0 00-.42-.429zM2.94 5.143a.424.424 0 00-.42.428v.858c0 .236.189.428.42.428.232 0 .42-.192.42-.428V5.57a.424.424 0 00-.42-.428zM2.94 7.714a.424.424 0 00-.42.429V9c0 .237.189.429.42.429.232 0 .42-.192.42-.43v-.856a.424.424 0 00-.42-.429zM2.94 10.286a.424.424 0 00-.42.428v.857c0 .237.189.429.42.429.232 0 .42-.192.42-.429v-.857a.424.424 0 00-.42-.428zM2.94 12.857a.424.424 0 00-.42.429v.857c0 .236.189.428.42.428.232 0 .42-.191.42-.428v-.857a.424.424 0 00-.42-.429zM2.94 15.428a.424.424 0 00-.42.429v.857c0 .237.189.429.42.429.232 0 .42-.192.42-.429v-.857a.424.424 0 00-.42-.428z"></path><g fill="#CBD5E1" clip-path="url(#___SVG_ID__7__0___)"><path d="M14.365 8.277a.568.568 0 01.023-.791.54.54 0 01.776.024l2.194 2.379a.568.568 0 010 .767l-2.194 2.38a.54.54 0 01-.776.023.568.568 0 01-.023-.791l1.84-1.996-1.84-1.995zm-5.784 0l-1.84 1.995 1.84 1.996a.568.568 0 01-.024.791.54.54 0 01-.775-.024l-2.194-2.379a.568.568 0 010-.767l2.194-2.38a.54.54 0 01.775-.023c.221.212.231.566.024.791z"></path><path d="M12.996 6.492a.561.561 0 00-.388-.685.548.548 0 00-.672.396l-1.988 7.57a.56.56 0 00.388.685.548.548 0 00.672-.396l1.988-7.57z" opacity="0.48"></path></g><defs><clipPath id="___SVG_ID__7__0___"><path fill="#fff" d="M0 0H13.166V13.435H0z" transform="translate(4.89 3.415)"></path></clipPath></defs></svg>